<?xml version="1.0" encoding="UTF-8"?><svg xmlns="http://www.w3.org/2000/svg" xmlns:xlink="http://www.w3.org/1999/xlink" height="122.9" preserveAspectRatio="xMidYMid meet" version="1.0" viewBox="4.6 2.5 118.8 122.9" width="118.8" zoomAndPan="magnify"><defs><radialGradient cx="64.7" cy="-15.174" gradientTransform="matrix(1.5331 0 0 1.124 -33.828 2.99)" gradientUnits="userSpaceOnUse" id="d" r="55.27" xlink:actuate="onLoad" xlink:show="other" xlink:type="simple" xmlns:xlink="http://www.w3.org/1999/xlink"><stop offset="0" stop-color="#fff"/><stop offset="1" stop-color="#eee" stop-opacity="0"/></radialGradient><radialGradient cx="65.35" cy="5.944" gradientTransform="scale(-1.4315) rotate(-45 1.008 134.946)" gradientUnits="userSpaceOnUse" id="c" r="58.696" xlink:actuate="onLoad" xlink:show="other" xlink:type="simple" xmlns:xlink="http://www.w3.org/1999/xlink"><stop offset="0" stop-color="#eee"/><stop offset="1" stop-color="#dcdcdc"/></radialGradient><radialGradient cx="58.4" cy="23.325" gradientTransform="scale(-1.431) rotate(-45 -25.142 134.57)" gradientUnits="userSpaceOnUse" id="b" r="56.734" xlink:actuate="onLoad" xlink:show="other" xlink:type="simple" xmlns:xlink="http://www.w3.org/1999/xlink"><stop offset="0" stop-color="#cc0700"/><stop offset="1" stop-color="#af0600"/></radialGradient><radialGradient cx="63.894" cy="117.35" gradientTransform="matrix(1 0 0 .08642 1.3 110.66)" gradientUnits="userSpaceOnUse" id="a" r="53.91" xlink:actuate="onLoad" xlink:show="other" xlink:type="simple" xmlns:xlink="http://www.w3.org/1999/xlink"><stop offset="0"/><stop offset="1" stop-opacity="0"/></radialGradient><radialGradient cx="64" cy="35.38" gradientTransform="matrix(1.7624 -.07438 .0542 1.2841 -50.71 -12.867)" gradientUnits="userSpaceOnUse" id="e" r="31.12" xlink:actuate="onLoad" xlink:show="other" xlink:type="simple" xmlns:xlink="http://www.w3.org/1999/xlink"><stop offset="0" stop-color="#393939"/><stop offset="1" stop-color="#323232"/></radialGradient></defs><path d="m119.1 120.8c0 2.573-24.136 4.6589-53.91 4.6589s-53.91-2.0859-53.91-4.6589 24.136-4.6589 53.91-4.6589 53.91 2.0859 53.91 4.6589z" fill="url(#a)" opacity=".443"/><path d="m121.41 61.948c0 31.707-25.704 57.411-57.411 57.411s-57.411-25.704-57.411-57.411c-5e-7 -31.707 25.704-57.411 57.411-57.411s57.411 25.704 57.411 57.411z" fill="url(#b)"/><path d="m121.41 61.948c0 31.707-25.704 57.411-57.411 57.411s-57.411-25.704-57.411-57.411c-5e-7 -31.707 25.704-57.411 57.411-57.411s57.411 25.704 57.411 57.411z" fill="url(#c)" stroke="#d5d5d5" stroke-width="4"/><g><path d="m65.344 11.219c-29.98 0-54.219 23.916-54.219 53.406s24.239 53.406 54.219 53.406 54.25-23.917 54.25-53.406-24.27-53.406-54.25-53.406z" fill="none" stroke="url(#d)" stroke-width="2.079" transform="matrix(1.0119 0 0 1.0267 -2.14 -4.402)"/></g><path d="m63.397 21.948c-13.333-0.0093-24.154 11.47-24.164 25.644-0.0018 2.5986 0.03281 5.0831 0.05479 7.452h-1.5342c-2.7004-0.0019-4.8743 2.7685-4.8767 6.2466v34.301c-0.0024 3.4781 2.1215 6.2995 4.8219 6.3014l52.548 0.0548c2.7004 2e-3 4.8195-2.8233 4.8219-6.3014l0.05479-34.301c0.0024-3.4781-2.1215-6.2447-4.8219-6.2466h-2.7397c-0.0085-2.3479-2e-3 -4.635 0-7.4521 0.0099-14.174-10.832-25.689-24.164-25.699zm-0.21918 8.6575c8.5837 6e-3 15.458 6.403 15.452 14.356v10.082h-30.959v-10.082c0.0056-7.9531 6.9232-14.362 15.507-14.356z" fill="url(#e)"/></svg>