<?xml version="1.0" encoding="UTF-8" standalone="no"?><svg xmlns="http://www.w3.org/2000/svg" xmlns:xlink="http://www.w3.org/1999/xlink" fill="#000000" height="20" preserveAspectRatio="xMidYMid meet" version="1" viewBox="8.0 6.0 16.0 20.0" width="16" zoomAndPan="magnify"><g fill="#f4f5f7" id="change1_1"><path d="M17.5,17h-3A6.5075,6.5075,0,0,0,8,23.5v2a.5.5,0,0,0,.5.5h15a.5.5,0,0,0,.5-.5v-2A6.5075,6.5075,0,0,0,17.5,17ZM23,25H9V23.5A5.5069,5.5069,0,0,1,14.5,18h3A5.5069,5.5069,0,0,1,23,23.5Z" fill="inherit"/><path d="M16,16a5,5,0,1,0-5-5A5.0059,5.0059,0,0,0,16,16Zm0-9a4,4,0,1,1-4,4A4.0039,4.0039,0,0,1,16,7Z" fill="inherit"/></g></svg>