<?xml version="1.0" encoding="UTF-8" standalone="no"?><svg xmlns="http://www.w3.org/2000/svg" xmlns:xlink="http://www.w3.org/1999/xlink" fill="#f4f5f7" height="42" preserveAspectRatio="xMidYMid meet" version="1" viewBox="3.0 11.0 58.0 42.0" width="58" zoomAndPan="magnify"><g id="change1_1"><path d="M56,11H8c-2.76,0-5,2.24-5,5v32c0,2.76,2.24,5,5,5h48c2.76,0,5-2.24,5-5V16C61,13.24,58.76,11,56,11z M42.27,30.02 l16.39-15.39C58.87,15.05,59,15.51,59,16v32c0,0.38-0.08,0.74-0.21,1.08L42.27,30.02z M56,13c0.43,0,0.84,0.09,1.2,0.26L32,36.92 L6.8,13.26C7.16,13.09,7.57,13,8,13H56z M5.21,49.08C5.08,48.74,5,48.38,5,48V16c0-0.49,0.13-0.95,0.34-1.36l16.39,15.39 L5.21,49.08z M8,51c-0.54,0-1.03-0.15-1.47-0.4l16.66-19.21l8.12,7.63c0.19,0.18,0.44,0.27,0.68,0.27s0.49-0.09,0.68-0.27 l8.12-7.63L57.47,50.6C57.03,50.85,56.54,51,56,51H8z"/></g></svg>